<?xml version="1.0" standalone="no"?><!DOCTYPE svg PUBLIC "-//W3C//DTD SVG 1.1//EN" "http://www.w3.org/Graphics/SVG/1.1/DTD/svg11.dtd"><svg t="1673873931334" class="icon" viewBox="0 0 1088 1024" version="1.1" xmlns="http://www.w3.org/2000/svg" p-id="3611" width="34" height="32" xmlns:xlink="http://www.w3.org/1999/xlink"><path d="M566.224 10.032a48 48 0 0 1 20.32 20.32l480.768 920.32a48 48 0 0 1-42.544 70.24H63.232a48 48 0 0 1-42.56-70.24l480.784-920.32a48 48 0 0 1 64.768-20.32zM544 52.576L63.232 972.896h961.536L544 52.576z m16 712.32a48 48 0 1 1 0 96 48 48 0 0 1 0-96z m0-416a44.272 44.272 0 0 1 44.128 47.84l-24.72 305.456a16 16 0 0 1-15.936 14.72h-7.36a16 16 0 0 1-15.952-14.736l-24.352-305.424A44.32 44.32 0 0 1 560 348.912z" p-id="3612" fill="#dbdbdb"></path></svg>